<svg width="69" height="68" viewBox="0 0 69 68" fill="none" xmlns="http://www.w3.org/2000/svg">
<rect x="34.5269" width="48" height="48" rx="15" transform="rotate(45 34.5269 0)" fill="#EFF2F5"/>
<path d="M30.0684 32.375C30.7337 31.3268 31.3672 30.4427 31.9688 29.7227C32.5794 28.9935 33.1445 28.4056 33.6641 27.959C34.1927 27.5033 34.6712 27.1751 35.0996 26.9746C35.5371 26.765 35.9245 26.6602 36.2617 26.6602C36.8086 26.6602 37.1914 26.8197 37.4102 27.1387C37.6289 27.4486 37.7383 27.8633 37.7383 28.3828C37.7383 28.6836 37.7064 29.0117 37.6426 29.3672C37.5788 29.7227 37.4922 30.0872 37.3828 30.4609C37.2826 30.8346 37.1641 31.2129 37.0273 31.5957C36.8906 31.9785 36.7493 32.3477 36.6035 32.7031L34.3066 38.2812C33.7324 39.6849 33.2676 40.8379 32.9121 41.7402C32.5566 42.6335 32.3789 43.2988 32.3789 43.7363C32.3789 43.9186 32.4154 44.0645 32.4883 44.1738C32.5703 44.2923 32.6979 44.3516 32.8711 44.3516C32.9349 44.3516 33.026 44.3288 33.1445 44.2832C33.263 44.2467 33.4043 44.1738 33.5684 44.0645C33.7415 43.9551 33.9421 43.8001 34.1699 43.5996C34.3978 43.3991 34.6484 43.1393 34.9219 42.8203L35.3457 43.1895C34.9993 43.5905 34.6849 43.9095 34.4023 44.1465C34.1289 44.3835 33.8783 44.5612 33.6504 44.6797C33.4225 44.8073 33.2174 44.8893 33.0352 44.9258C32.8529 44.9622 32.6842 44.9805 32.5293 44.9805C32.2285 44.9805 31.9733 44.9303 31.7637 44.8301C31.5632 44.7389 31.3991 44.6113 31.2715 44.4473C31.153 44.2923 31.0664 44.11 31.0117 43.9004C30.957 43.6999 30.9297 43.4902 30.9297 43.2715C30.9297 42.916 30.9753 42.5332 31.0664 42.123C31.1667 41.722 31.2897 41.3073 31.4355 40.8789C31.5905 40.4414 31.7591 40.0039 31.9414 39.5664C32.1328 39.1198 32.3197 38.6914 32.502 38.2812L34.8809 32.7031C35.0814 32.2292 35.2819 31.7507 35.4824 31.2676C35.6921 30.7754 35.8743 30.306 36.0293 29.8594C36.1934 29.4128 36.3255 29.0072 36.4258 28.6426C36.526 28.2689 36.5762 27.959 36.5762 27.7129C36.5762 27.5306 36.5443 27.3893 36.4805 27.2891C36.4167 27.1888 36.3073 27.1387 36.1523 27.1387C35.5781 27.2298 34.9128 27.5898 34.1562 28.2188C33.8372 28.4831 33.4772 28.8203 33.0762 29.2305C32.6842 29.6406 32.2604 30.1465 31.8047 30.748C31.349 31.3496 30.8568 32.056 30.3281 32.8672C29.8086 33.6784 29.2617 34.6172 28.6875 35.6836L26.0625 42H24.2988L29.6445 29.2305C29.8451 28.7474 30.0456 28.2598 30.2461 27.7676C30.4557 27.2754 30.6426 26.8105 30.8066 26.373C30.9798 25.9264 31.1165 25.5163 31.2168 25.1426C31.3262 24.7689 31.3809 24.459 31.3809 24.2129C31.3809 23.8301 31.2441 23.6387 30.9707 23.6387C30.3874 23.7207 29.7129 24.0807 28.9473 24.7188C28.6191 24.9922 28.2591 25.3385 27.8672 25.7578C27.4753 26.168 27.0469 26.6784 26.582 27.2891C26.1263 27.8997 25.6341 28.6198 25.1055 29.4492C24.5859 30.2695 24.0345 31.2174 23.4512 32.293L19.2949 42H17.5859L23.875 27.248C24.0755 26.765 24.2806 26.2773 24.4902 25.7852C24.6999 25.293 24.8867 24.8281 25.0508 24.3906C25.2148 23.944 25.347 23.5339 25.4473 23.1602C25.5566 22.7865 25.6113 22.4766 25.6113 22.2305C25.6113 21.8568 25.4746 21.6699 25.2012 21.6699C24.554 21.7428 23.8112 22.0299 22.9727 22.5312C22.6172 22.75 22.2207 23.0234 21.7832 23.3516C21.3457 23.6797 20.8717 24.0853 20.3613 24.5684C19.86 25.0423 19.3223 25.6029 18.748 26.25C18.1829 26.8971 17.5859 27.6491 16.957 28.5059L16.6836 26.7969C17.5677 25.8854 18.4382 25.0833 19.2949 24.3906C20.1608 23.6888 20.9766 23.1009 21.7422 22.627C22.5169 22.1439 23.2188 21.7793 23.8477 21.5332C24.4857 21.2871 25.0189 21.1641 25.4473 21.1641C25.9668 21.1641 26.3314 21.3145 26.541 21.6152C26.7598 21.9069 26.8691 22.2988 26.8691 22.791C26.8691 23.1009 26.8327 23.4382 26.7598 23.8027C26.6868 24.1673 26.5911 24.5456 26.4727 24.9375C26.3542 25.3203 26.2174 25.7122 26.0625 26.1133C25.9167 26.5052 25.7663 26.8835 25.6113 27.248L24.9688 28.7383C25.6341 27.7266 26.2721 26.8652 26.8828 26.1543C27.4935 25.4434 28.0632 24.8691 28.5918 24.4316C29.1204 23.985 29.6035 23.6615 30.041 23.4609C30.4876 23.2604 30.8796 23.1602 31.2168 23.1602C31.7363 23.1602 32.1009 23.3105 32.3105 23.6113C32.5202 23.903 32.625 24.2904 32.625 24.7734C32.625 25.0833 32.5885 25.4206 32.5156 25.7852C32.4427 26.1497 32.347 26.528 32.2285 26.9199C32.1191 27.3027 31.987 27.6947 31.832 28.0957C31.6862 28.4876 31.5358 28.8659 31.3809 29.2305L30.0684 32.375ZM50.248 31.5547C51.278 31.0625 52.0846 30.3242 52.668 29.3398C53.2513 28.3555 53.543 27.2025 53.543 25.8809C53.543 25.4525 53.4928 25.056 53.3926 24.6914C53.3014 24.3268 53.1602 24.0124 52.9688 23.748C52.7773 23.4837 52.5404 23.2786 52.2578 23.1328C51.9753 22.9779 51.6517 22.9004 51.2871 22.9004C50.7038 22.9004 50.1204 23.0234 49.5371 23.2695C48.9538 23.5156 48.3796 23.8574 47.8145 24.2949C47.2493 24.7324 46.7025 25.252 46.1738 25.8535C45.6543 26.446 45.1621 27.0931 44.6973 27.7949C44.2415 28.4967 43.8223 29.235 43.4395 30.0098C43.0566 30.7845 42.7285 31.5684 42.4551 32.3613C42.1816 33.1543 41.9674 33.9382 41.8125 34.7129C41.6667 35.4876 41.5938 36.2305 41.5938 36.9414C41.5938 37.7253 41.6758 38.3952 41.8398 38.9512C42.0039 39.5072 42.2318 39.9674 42.5234 40.332C42.8151 40.6966 43.1615 40.9655 43.5625 41.1387C43.9635 41.3027 44.4056 41.3848 44.8887 41.3848C44.9798 41.3848 45.1667 41.3757 45.4492 41.3574C45.7409 41.3301 46.0918 41.2526 46.502 41.125C46.9212 40.9974 47.3861 40.8014 47.8965 40.5371C48.4069 40.2728 48.931 39.8945 49.4688 39.4023L49.8105 39.8945C49.2272 40.4596 48.6439 40.9017 48.0605 41.2207C47.4863 41.5397 46.9531 41.7767 46.4609 41.9316C45.9779 42.0775 45.554 42.1641 45.1895 42.1914C44.834 42.2279 44.5879 42.2461 44.4512 42.2461C43.9499 42.2461 43.4167 42.1641 42.8516 42C42.2956 41.8359 41.7806 41.5579 41.3066 41.166C40.8327 40.765 40.4362 40.2318 40.1172 39.5664C39.8073 38.8919 39.6523 38.0488 39.6523 37.0371C39.6523 36.0801 39.7526 35.1367 39.9531 34.207C40.1628 33.2773 40.4499 32.3796 40.8145 31.5137C41.1882 30.6478 41.6211 29.8229 42.1133 29.0391C42.6146 28.2461 43.1523 27.5124 43.7266 26.8379C44.3099 26.1634 44.9206 25.5527 45.5586 25.0059C46.1966 24.459 46.8346 23.9941 47.4727 23.6113C48.1107 23.2194 48.7396 22.9186 49.3594 22.709C49.9792 22.4993 50.5625 22.3945 51.1094 22.3945C51.6927 22.3945 52.2259 22.4811 52.709 22.6543C53.1921 22.8275 53.6068 23.0736 53.9531 23.3926C54.3086 23.7116 54.582 24.0944 54.7734 24.541C54.974 24.9785 55.0742 25.4661 55.0742 26.0039C55.0742 26.6055 54.9512 27.2161 54.7051 27.8359C54.459 28.4466 54.1263 29.0208 53.707 29.5586C53.2878 30.0872 52.8001 30.5612 52.2441 30.9805C51.6973 31.3997 51.123 31.7142 50.5215 31.9238L50.248 31.5547Z" fill="#A1A5B7"/>
</svg>
