<svg width="66" height="66" viewBox="0 0 66 66" fill="none" xmlns="http://www.w3.org/2000/svg">
<rect x="33" y="0.473145" width="46" height="46" rx="15" transform="rotate(45 33 0.473145)" fill="#3DA2FF"/>
<path d="M28.0684 31.375C28.7337 30.3268 29.3672 29.4427 29.9688 28.7227C30.5794 27.9935 31.1445 27.4056 31.6641 26.959C32.1927 26.5033 32.6712 26.1751 33.0996 25.9746C33.5371 25.765 33.9245 25.6602 34.2617 25.6602C34.8086 25.6602 35.1914 25.8197 35.4102 26.1387C35.6289 26.4486 35.7383 26.8633 35.7383 27.3828C35.7383 27.6836 35.7064 28.0117 35.6426 28.3672C35.5788 28.7227 35.4922 29.0872 35.3828 29.4609C35.2826 29.8346 35.1641 30.2129 35.0273 30.5957C34.8906 30.9785 34.7493 31.3477 34.6035 31.7031L32.3066 37.2812C31.7324 38.6849 31.2676 39.8379 30.9121 40.7402C30.5566 41.6335 30.3789 42.2988 30.3789 42.7363C30.3789 42.9186 30.4154 43.0645 30.4883 43.1738C30.5703 43.2923 30.6979 43.3516 30.8711 43.3516C30.9349 43.3516 31.026 43.3288 31.1445 43.2832C31.263 43.2467 31.4043 43.1738 31.5684 43.0645C31.7415 42.9551 31.9421 42.8001 32.1699 42.5996C32.3978 42.3991 32.6484 42.1393 32.9219 41.8203L33.3457 42.1895C32.9993 42.5905 32.6849 42.9095 32.4023 43.1465C32.1289 43.3835 31.8783 43.5612 31.6504 43.6797C31.4225 43.8073 31.2174 43.8893 31.0352 43.9258C30.8529 43.9622 30.6842 43.9805 30.5293 43.9805C30.2285 43.9805 29.9733 43.9303 29.7637 43.8301C29.5632 43.7389 29.3991 43.6113 29.2715 43.4473C29.153 43.2923 29.0664 43.11 29.0117 42.9004C28.957 42.6999 28.9297 42.4902 28.9297 42.2715C28.9297 41.916 28.9753 41.5332 29.0664 41.123C29.1667 40.722 29.2897 40.3073 29.4355 39.8789C29.5905 39.4414 29.7591 39.0039 29.9414 38.5664C30.1328 38.1198 30.3197 37.6914 30.502 37.2812L32.8809 31.7031C33.0814 31.2292 33.2819 30.7507 33.4824 30.2676C33.6921 29.7754 33.8743 29.306 34.0293 28.8594C34.1934 28.4128 34.3255 28.0072 34.4258 27.6426C34.526 27.2689 34.5762 26.959 34.5762 26.7129C34.5762 26.5306 34.5443 26.3893 34.4805 26.2891C34.4167 26.1888 34.3073 26.1387 34.1523 26.1387C33.5781 26.2298 32.9128 26.5898 32.1562 27.2188C31.8372 27.4831 31.4772 27.8203 31.0762 28.2305C30.6842 28.6406 30.2604 29.1465 29.8047 29.748C29.349 30.3496 28.8568 31.056 28.3281 31.8672C27.8086 32.6784 27.2617 33.6172 26.6875 34.6836L24.0625 41H22.2988L27.6445 28.2305C27.8451 27.7474 28.0456 27.2598 28.2461 26.7676C28.4557 26.2754 28.6426 25.8105 28.8066 25.373C28.9798 24.9264 29.1165 24.5163 29.2168 24.1426C29.3262 23.7689 29.3809 23.459 29.3809 23.2129C29.3809 22.8301 29.2441 22.6387 28.9707 22.6387C28.3874 22.7207 27.7129 23.0807 26.9473 23.7188C26.6191 23.9922 26.2591 24.3385 25.8672 24.7578C25.4753 25.168 25.0469 25.6784 24.582 26.2891C24.1263 26.8997 23.6341 27.6198 23.1055 28.4492C22.5859 29.2695 22.0345 30.2174 21.4512 31.293L17.2949 41H15.5859L21.875 26.248C22.0755 25.765 22.2806 25.2773 22.4902 24.7852C22.6999 24.293 22.8867 23.8281 23.0508 23.3906C23.2148 22.944 23.347 22.5339 23.4473 22.1602C23.5566 21.7865 23.6113 21.4766 23.6113 21.2305C23.6113 20.8568 23.4746 20.6699 23.2012 20.6699C22.554 20.7428 21.8112 21.0299 20.9727 21.5312C20.6172 21.75 20.2207 22.0234 19.7832 22.3516C19.3457 22.6797 18.8717 23.0853 18.3613 23.5684C17.86 24.0423 17.3223 24.6029 16.748 25.25C16.1829 25.8971 15.5859 26.6491 14.957 27.5059L14.6836 25.7969C15.5677 24.8854 16.4382 24.0833 17.2949 23.3906C18.1608 22.6888 18.9766 22.1009 19.7422 21.627C20.5169 21.1439 21.2188 20.7793 21.8477 20.5332C22.4857 20.2871 23.0189 20.1641 23.4473 20.1641C23.9668 20.1641 24.3314 20.3145 24.541 20.6152C24.7598 20.9069 24.8691 21.2988 24.8691 21.791C24.8691 22.1009 24.8327 22.4382 24.7598 22.8027C24.6868 23.1673 24.5911 23.5456 24.4727 23.9375C24.3542 24.3203 24.2174 24.7122 24.0625 25.1133C23.9167 25.5052 23.7663 25.8835 23.6113 26.248L22.9688 27.7383C23.6341 26.7266 24.2721 25.8652 24.8828 25.1543C25.4935 24.4434 26.0632 23.8691 26.5918 23.4316C27.1204 22.985 27.6035 22.6615 28.041 22.4609C28.4876 22.2604 28.8796 22.1602 29.2168 22.1602C29.7363 22.1602 30.1009 22.3105 30.3105 22.6113C30.5202 22.903 30.625 23.2904 30.625 23.7734C30.625 24.0833 30.5885 24.4206 30.5156 24.7852C30.4427 25.1497 30.347 25.528 30.2285 25.9199C30.1191 26.3027 29.987 26.6947 29.832 27.0957C29.6862 27.4876 29.5358 27.8659 29.3809 28.2305L28.0684 31.375ZM48.248 30.5547C49.278 30.0625 50.0846 29.3242 50.668 28.3398C51.2513 27.3555 51.543 26.2025 51.543 24.8809C51.543 24.4525 51.4928 24.056 51.3926 23.6914C51.3014 23.3268 51.1602 23.0124 50.9688 22.748C50.7773 22.4837 50.5404 22.2786 50.2578 22.1328C49.9753 21.9779 49.6517 21.9004 49.2871 21.9004C48.7038 21.9004 48.1204 22.0234 47.5371 22.2695C46.9538 22.5156 46.3796 22.8574 45.8145 23.2949C45.2493 23.7324 44.7025 24.252 44.1738 24.8535C43.6543 25.446 43.1621 26.0931 42.6973 26.7949C42.2415 27.4967 41.8223 28.235 41.4395 29.0098C41.0566 29.7845 40.7285 30.5684 40.4551 31.3613C40.1816 32.1543 39.9674 32.9382 39.8125 33.7129C39.6667 34.4876 39.5938 35.2305 39.5938 35.9414C39.5938 36.7253 39.6758 37.3952 39.8398 37.9512C40.0039 38.5072 40.2318 38.9674 40.5234 39.332C40.8151 39.6966 41.1615 39.9655 41.5625 40.1387C41.9635 40.3027 42.4056 40.3848 42.8887 40.3848C42.9798 40.3848 43.1667 40.3757 43.4492 40.3574C43.7409 40.3301 44.0918 40.2526 44.502 40.125C44.9212 39.9974 45.3861 39.8014 45.8965 39.5371C46.4069 39.2728 46.931 38.8945 47.4688 38.4023L47.8105 38.8945C47.2272 39.4596 46.6439 39.9017 46.0605 40.2207C45.4863 40.5397 44.9531 40.7767 44.4609 40.9316C43.9779 41.0775 43.554 41.1641 43.1895 41.1914C42.834 41.2279 42.5879 41.2461 42.4512 41.2461C41.9499 41.2461 41.4167 41.1641 40.8516 41C40.2956 40.8359 39.7806 40.5579 39.3066 40.166C38.8327 39.765 38.4362 39.2318 38.1172 38.5664C37.8073 37.8919 37.6523 37.0488 37.6523 36.0371C37.6523 35.0801 37.7526 34.1367 37.9531 33.207C38.1628 32.2773 38.4499 31.3796 38.8145 30.5137C39.1882 29.6478 39.6211 28.8229 40.1133 28.0391C40.6146 27.2461 41.1523 26.5124 41.7266 25.8379C42.3099 25.1634 42.9206 24.5527 43.5586 24.0059C44.1966 23.459 44.8346 22.9941 45.4727 22.6113C46.1107 22.2194 46.7396 21.9186 47.3594 21.709C47.9792 21.4993 48.5625 21.3945 49.1094 21.3945C49.6927 21.3945 50.2259 21.4811 50.709 21.6543C51.1921 21.8275 51.6068 22.0736 51.9531 22.3926C52.3086 22.7116 52.582 23.0944 52.7734 23.541C52.974 23.9785 53.0742 24.4661 53.0742 25.0039C53.0742 25.6055 52.9512 26.2161 52.7051 26.8359C52.459 27.4466 52.1263 28.0208 51.707 28.5586C51.2878 29.0872 50.8001 29.5612 50.2441 29.9805C49.6973 30.3997 49.123 30.7142 48.5215 30.9238L48.248 30.5547Z" fill="white"/>
</svg>
